<?xml version="1.0" encoding="utf-8"?>
<!-- Generator: Adobe Illustrator 24.1.0, SVG Export Plug-In . SVG Version: 6.00 Build 0)  -->
<svg version="1.1" id="圖層_1" xmlns="http://www.w3.org/2000/svg" xmlns:xlink="http://www.w3.org/1999/xlink" x="0px" y="0px"
	 viewBox="0 0 282 79" style="enable-background:new 0 0 282 79;" xml:space="preserve">
<style type="text/css">
	.st0{fill:#DE3235;}
	.st1{fill:#FFFFFF;}
	.st2{fill:#030000;}
</style>
<g>
	<path class="st0" d="M62.91,6.28H19.43c-6.36,0-11.57,5.09-11.57,11.31v42.5c0,6.22,5.21,11.31,11.57,11.31h43.48
		c6.36,0,11.57-5.09,11.57-11.31v-42.5C74.48,11.37,69.27,6.28,62.91,6.28z"/>
	<path class="st1" d="M45.56,17.12v14.4h-8.01v-8.34c0-1.85,4.91-6.32,4.91-6.32H31.35c-4.39,0-10.6,3.79-10.6,8.84v35.11h16.28
		v-14.4h8.27v6.82c0,0-0.26,4.29-5.17,7.58h11.89c3.36,0,9.56-1.01,9.56-8.34V17.12H45.56z M57.97,50.21c0,3.28,0,7.07-5.43,7.07
		H48.4h-0.13h0.13c0,0,0.95-2.27,0.95-2.86V42.3H33.59v14.74h-8.87V25.12c0-2.86,3.96-4.72,6.55-4.72h3.44c0,0-1.03,1.52-1.03,2.86
		v11.96H49.7V20.91h8.27V50.21z"/>
	<g>
		<path class="st2" d="M89.6,27.01v10.86h30.89V27.01H89.6z M116.03,33.98H94.07v-3.09h21.96V33.98z"/>
		<path class="st2" d="M86.79,45.03h25.99l-9.33,3.39v6.83c0,1.28-0.69,1.96-1.96,1.96c-1.52,0-6.24,0.06-6.24,0.06l-2.53,4.01
			h10.63c3.09,0,4.67-1.57,4.67-4.72v-6.29c5.65-2.26,10.56-4.27,14.78-6.14v-3.29H89.43L86.79,45.03z"/>
		<path class="st2" d="M163.53,56.28c0,0-7.42-0.1-10.31-0.1c-9.14,0-11.1-4.62-11.35-4.81V32.7h-8.26l-2.89,4.52h6.68v13.8
			l-6.73,7.66l3.44,3.19l5.66-6.57c0,0,3.8,3.59,7.11,4.41c2.06,0.51,4.81,0.79,8.15,0.84c3.29,0.05,9.14,0.1,9.14,0.1h8.66
			l2.88-4.54l-5.35,0.12L163.53,56.28z"/>
		<path class="st2" d="M144.23,49.16l2.85,3.83c5.7-3.83,9.68-9.58,11.94-17.29c2.01,5.7,5.94,11.44,11.79,17.29l3.24-3.44
			c-6.68-6.19-10.81-12.33-12.43-18.32h9.64l2.85-4.52h-13.32c0.29-2.6,0.44-5.35,0.44-8.25v-2.65h-4.67v3.68
			c-0.05,2.46-0.2,4.86-0.44,7.22h-9.02l-2.88,4.52h11.2C153.71,39.48,149.97,45.47,144.23,49.16z"/>
		<polygon class="st2" points="214.84,15.81 210.12,15.81 210.12,61.44 214.84,61.44 214.84,35.99 214.84,35.59 225.78,42.59 
			227.99,39.14 214.84,30.72 		"/>
		<path class="st2" d="M197.06,15.81h-4.89c-1.96,8.64-5.77,15.91-11.27,21.02l3.24,4.03c3.93-3.63,7.07-8.15,9.43-13.65h8.74
			c-0.73,4.7-2.06,9.01-4.01,12.93l-7.04-4.51l-2.21,3.45l7.21,4.62c-0.04,0.05-0.08,0.11-0.13,0.16c-3.39,5.11-8.06,9.33-14,12.67
			l3.19,3.98c12.72-7.56,19.89-18.81,21.56-33.65v-4.13h-11.64C195.83,20.87,196.62,17.78,197.06,15.81z"/>
		<polygon class="st2" points="251.77,22.44 271.59,22.44 275,17.87 247.1,17.87 247.1,59.87 271.99,59.87 275,55.15 251.77,55.15 
					"/>
		
			<rect x="134.9" y="16.52" transform="matrix(0.6857 -0.7279 0.7279 0.6857 26.9467 106.9139)" class="st2" width="4.77" height="11.47"/>
		
			<rect x="236.19" y="16.52" transform="matrix(0.6857 -0.7279 0.7279 0.6857 58.78 180.641)" class="st2" width="4.77" height="11.47"/>
		
			<rect x="234.94" y="28" transform="matrix(0.6857 -0.7279 0.7279 0.6857 50.0298 183.3398)" class="st2" width="4.77" height="11.47"/>
		
			<rect x="228.97" y="49.99" transform="matrix(0.3652 -0.9309 0.9309 0.3652 102.103 254.4611)" class="st2" width="17.31" height="4.77"/>
		<polygon class="st2" points="105.67,15.81 100.22,15.81 102.27,20.08 87.12,20.08 84.32,24.45 123.71,24.45 126.44,20.08 
			107.72,20.08 		"/>
	</g>
</g>
</svg>
